# xmcd
#
# Track frame offsets: 
#        150
#        12007
#        26352
#        40041
#        52296
#        63979
#        74440
#        87794
#        99385
#        112650
#        122287
#        132603
#        145308
#        154209
#        165317
#        177383
#        189365
#        198998
#        207602
#        216611
#        229517
#        241154
#        254588
#        266420
#        280259
#
# Disc length: 3900 seconds
#
# Revision: 0
# Processed by: cddbd v1.5.2PL0 Copyright (c) Steve Scherf et al.
# Submitted via: ExactAudioCopy v0.99pb5
#
DISCID=640f3a19
DTITLE=Various Artist - Nashville Sound - CD4
DYEAR=2014
DGENRE=Country
TTITLE0=Jimmy Dean - The Cajun Queen (1962)
TTITLE1=Jimmy Dean - PT-109 (1961)
TTITLE2=Patsy Cline - She's Got You (1962)
TTITLE3=Burl Ives - Call Me Mr In-Between (1962)
TTITLE4=George Jones - She Thinks I Still Care (1962)
TTITLE5=Leroy Van Dyke - If A Woman Answers (Hang Up The Phone) (1962)
TTITLE6=Claude King - Wolverton Mountain (1962)
TTITLE7=Patsy Cline - When I Get Through With You (You'll Love Me Too)
TTITLE7=(1962)
TTITLE8=Carl and Pearl Butler - Don't Let Me Cross Over (1962)
TTITLE9=Dolly Parton - The Love You Gave (1962)
TTITLE10=Dolly Parton - It's Sure Gonna Hurt (1962)
TTITLE11=Johnny Tillotson - It Keeps Right On A-Hurtin' (1962)
TTITLE12=Ernest Ashworth - Everybody But Me (1962)
TTITLE13=Carl Belew - Hello Out There (1962)
TTITLE14=George Jones - A Girl I Used To Know (1962)
TTITLE15=Porter Wagoner - I've Enjoyed As Much Of This As I Can Stand 
TTITLE15=(1962)
TTITLE16=Skeeter Davis and Porter Wagoner - There's Always One (Who Love
TTITLE16=s You A Lot) (1962)
TTITLE17=Skeeter Davis and Porter Wagoner - My Greatest Weakness (1962)
TTITLE18=Faron Young - The Comeback (1962)
TTITLE19=Marty Robbins - Devil Woman (1962)
TTITLE20=Glen Campbell - Too Late To Worry, Too Blue To Cry (1962)
TTITLE21=Glen Campbell - Long Black Limousine (1962)
TTITLE22=Skeeter Davis - The End Of The World (1962)
TTITLE23=Charlie Rich - Sittin' And Thinkin' (1962)
TTITLE24=Brenda Lee - All Alone Am I (1962)
EXTD=
EXTT0=
EXTT1=
EXTT2=
EXTT3=
EXTT4=
EXTT5=
EXTT6=
EXTT7=
EXTT8=
EXTT9=
EXTT10=
EXTT11=
EXTT12=
EXTT13=
EXTT14=
EXTT15=
EXTT16=
EXTT17=
EXTT18=
EXTT19=
EXTT20=
EXTT21=
EXTT22=
EXTT23=
EXTT24=
PLAYORDER=
